<?xml version="1.0" standalone="no"?><!DOCTYPE svg PUBLIC "-//W3C//DTD SVG 1.1//EN" "http://www.w3.org/Graphics/SVG/1.1/DTD/svg11.dtd"><svg t="1576573375488" class="icon" viewBox="0 0 1024 1024" version="1.1" xmlns="http://www.w3.org/2000/svg" p-id="3336" xmlns:xlink="http://www.w3.org/1999/xlink" width="200" height="200"><defs><style type="text/css"></style></defs><path d="M824 388h-99V277c0-117.4-95.6-213-213-213s-213 95.6-213 213v111h-99c-39.7 0-72 32.3-72 72v428c0 39.7 32.3 72 72 72h624c39.7 0 72-32.3 72-72V460c0-39.7-32.3-72-72-72zM548 745c0 19.9-16.1 36-36 36s-36-16.1-36-36V601c0-19.9 16.1-36 36-36s36 16.1 36 36v144z m105-357H371V277c0-77.7 63.3-141 141-141s141 63.3 141 141v111z" p-id="3337" fill="#8B8F95"></path></svg>